<svg width="55" height="47" viewBox="0 0 55 47" fill="none" xmlns="http://www.w3.org/2000/svg">
<path d="M6.11361 23.9109C5.73798 11.551 15.1673 1.21717 27.1741 0.830488C39.1808 0.444017 49.2184 10.1508 49.594 22.5107C49.735 27.1521 48.4935 31.5076 46.252 35.158C47.5797 36.8323 49.4086 38.4276 52.5842 39.3753C52.9921 39.497 53.0856 40.0516 52.7189 40.2689C42.2599 46.4659 29.9345 46.4372 25.2804 45.5053C25.1206 45.4733 24.9745 45.4334 24.841 45.3876C14.5339 43.9166 6.45007 34.9783 6.11361 23.9109Z" fill="#4DFFCD"/>
<path d="M19.137 22.2744C20.481 24.0024 23.169 25.7304 26.625 22.2744" stroke="black" stroke-width="1.152" stroke-linecap="round"/>
<circle cx="27.7768" cy="15.938" r="1.728" fill="#161616"/>
<circle cx="18.561" cy="15.938" r="1.728" fill="#161616"/>
</svg>
