<svg width="177" height="27" viewBox="0 0 177 27" fill="none" xmlns="http://www.w3.org/2000/svg">
<path opacity="0.5" d="M32.9218 13.5929C32.9218 6.36187 27.0599 0.5 19.8289 0.5C12.5979 0.5 6.73604 6.36187 6.73604 13.5929V26.6857H19.8289C27.0599 26.6857 32.9218 20.8238 32.9218 13.5929Z" fill="#4DFFCD"/>
<path opacity="0.9" d="M27.5363 13.5929C27.5363 6.36187 21.6744 0.5 14.4434 0.5C7.21241 0.5 1.35054 6.36187 1.35054 13.5929V26.6857H14.4434C21.6744 26.6857 27.5363 20.8238 27.5363 13.5929Z" fill="#4DFFCD"/>
<path d="M42.6389 27.0001V0.804688H65.2622V6.11181H47.9801V10.3983H61.8942V15.7054H47.9801V27.0001H42.6389Z" fill="white"/>
<path d="M73.5788 27.0001C72.6975 27.0001 71.884 26.7736 71.1384 26.3206C70.3927 25.8676 69.7939 25.2673 69.342 24.5198C68.89 23.7724 68.6641 22.957 68.6641 22.0736V0.804688H73.8838V21.8018H77.8495V27.0001H73.5788Z" fill="white"/>
<path d="M81.2515 27.0001V8.04604H86.4565V27.0001H81.2515ZM81.2515 6.04377V0.804688H86.4565V6.04377H81.2515Z" fill="white"/>
<path d="M94.7918 27.0002C93.9073 27.0002 93.0908 26.7734 92.3423 26.3198C91.5939 25.8662 90.9929 25.2651 90.5393 24.5167C90.0857 23.7683 89.8589 22.9518 89.8589 22.0673V12.2015C89.8589 11.3169 90.0857 10.5005 90.5393 9.75202C90.9929 9.00358 91.5939 8.40256 92.3423 7.94896C93.0908 7.49536 93.9073 7.26855 94.7918 7.26855H109.829V12.4736H95.0639V21.7951H109.863V27.0002H94.7918Z" fill="white"/>
<path d="M113.264 27.0001V0.804688H118.469V7.26849H128.335C129.22 7.26849 130.036 7.49529 130.785 7.94889C131.533 8.40249 132.134 9.00351 132.588 9.75195C133.041 10.5004 133.268 11.3169 133.268 12.2014V27.0001H128.063V12.4735H118.469V27.0001H113.264Z" fill="white"/>
<path d="M141.603 27.0002C140.696 27.0002 139.868 26.7734 139.12 26.3198C138.371 25.8662 137.77 25.2651 137.317 24.5167C136.886 23.7683 136.67 22.9518 136.67 22.0673V14.5148H151.469V12.4736H136.67V7.26855H151.741C152.648 7.26855 153.476 7.49536 154.224 7.94896C154.973 8.40256 155.563 9.00358 155.994 9.75202C156.447 10.5005 156.674 11.3169 156.674 12.2015V27.0002H141.603ZM141.875 21.7951H151.469V19.0735H141.875V21.7951Z" fill="white"/>
<path d="M165.043 26.9998C164.136 26.9998 163.308 26.773 162.56 26.3194C161.811 25.8658 161.21 25.2647 160.757 24.5163C160.303 23.7679 160.076 22.9514 160.076 22.0669V0.736328H165.281V6.58777H172.596V11.7928H165.281V21.7947H172.596V26.9998H165.043Z" fill="white"/>
</svg>
