<svg width="85" height="85" viewBox="0 0 85 85" fill="none" xmlns="http://www.w3.org/2000/svg">
<path d="M76.9825 27.2C76.3264 20.3441 73.5342 13.8675 69.0003 8.68457C63.8164 4.16866 57.3528 1.38394 50.511 0.718857C47.1246 0.261377 43.7124 0.0212664 40.2953 0L37.4015 0C33.9909 0.0214042 30.5852 0.261516 27.2053 0.718857C20.3567 1.38599 13.89 4.18564 8.716 8.72342C4.19061 13.8966 1.39913 20.358 0.73377 27.2C0.1812 31.06 -0.0591119 34.9584 0.0151753 38.8571C-0.064449 42.7553 0.169362 46.6536 0.714349 50.5143C1.38075 57.3675 4.17159 63.8411 8.69658 69.0297C13.8857 73.5493 20.3567 76.3343 27.2053 76.9954C30.5852 77.4521 33.9909 77.6922 37.4015 77.7143H40.2759C43.6995 77.6938 47.1182 77.4537 50.511 76.9954C57.3664 76.3322 63.8404 73.5323 69.0197 68.9908C73.5381 63.8152 76.3227 57.354 76.9825 50.5143C77.5351 46.6542 77.7754 42.7559 77.7011 38.8571C77.7743 34.9584 77.534 31.0602 76.9825 27.2Z" fill="#EEF0F2"/>
<path d="M76.9825 27.2C76.3264 20.3441 73.5342 13.8675 69.0003 8.68457C63.8164 4.16866 57.3528 1.38394 50.511 0.718857C47.1246 0.261376 43.7124 0.0212664 40.2953 0L37.4015 0C33.9909 0.0214042 30.5852 0.261516 27.2053 0.718857C20.3567 1.38599 13.89 4.18564 8.716 8.72342C4.19061 13.8966 1.39913 20.358 0.73377 27.2C0.1812 31.06 -0.0591119 34.9584 0.0151753 38.8571C-0.064449 42.7553 0.169362 46.6536 0.714349 50.5143C1.38075 57.3675 4.17159 63.8411 8.69658 69.0297C13.8857 73.5493 20.3567 76.3342 27.2053 76.9954C30.5852 77.452 33.9909 77.6922 37.4015 77.7142H40.2759C43.6995 77.6938 47.1182 77.4537 50.511 76.9954C57.3664 76.3322 63.8404 73.5323 69.0197 68.9908C73.5381 63.8152 76.3227 57.354 76.9825 50.5143C77.5351 46.6542 77.7754 42.7558 77.7011 38.8571C77.7743 34.9584 77.534 31.0602 76.9825 27.2Z" fill="#E5E5E5"/>
<mask id="mask0_961_5507" style="mask-type:alpha" maskUnits="userSpaceOnUse" x="0" y="0" width="78" height="78">
<path d="M76.9825 27.2C76.3264 20.3441 73.5342 13.8675 69.0003 8.68457C63.8164 4.16866 57.3528 1.38394 50.511 0.718857C47.1246 0.261376 43.7124 0.0212664 40.2953 0L37.4015 0C33.9909 0.0214042 30.5852 0.261516 27.2053 0.718857C20.3567 1.38599 13.89 4.18564 8.716 8.72342C4.19061 13.8966 1.39913 20.358 0.73377 27.2C0.1812 31.06 -0.0591119 34.9584 0.0151753 38.8571C-0.064449 42.7553 0.169362 46.6536 0.714349 50.5143C1.38075 57.3675 4.17159 63.8411 8.69658 69.0297C13.8857 73.5493 20.3567 76.3342 27.2053 76.9954C30.5852 77.452 33.9909 77.6922 37.4015 77.7142H40.2759C43.6995 77.6938 47.1182 77.4537 50.511 76.9954C57.3664 76.3322 63.8404 73.5323 69.0197 68.9908C73.5381 63.8152 76.3227 57.354 76.9825 50.5143C77.5351 46.6542 77.7754 42.7558 77.7011 38.8571C77.7743 34.9584 77.534 31.0602 76.9825 27.2Z" fill="#EEF0F2"/>
</mask>
<g mask="url(#mask0_961_5507)">
<path d="M-4.9259 52.3618C-5.15994 44.8715 3.04328 41.473 7.892 34.7512C13.639 23.3874 25.2561 15.4362 38.8807 15.0098C52.5117 14.5834 64.608 21.7999 71.052 32.7909C76.188 39.1891 82.5421 42.1328 82.7763 49.617C83.011 57.1301 75.4661 63.0282 70.6564 69.7715C64.5331 79.7259 53.6848 86.5096 41.1298 86.9024C28.5979 87.2943 17.3646 81.2254 10.6269 71.7033C5.30517 65.2553 -4.69026 59.8941 -4.9259 52.3618Z" fill="#8781FF"/>
</g>
<path d="M42.2565 40.05C42.4863 40.0501 42.7036 40.1404 42.8443 40.2942C42.9849 40.4479 43.0333 40.6479 42.9762 40.8362C42.481 42.4653 40.7356 43.67 38.6559 43.6702C36.576 43.6702 34.8298 42.4654 34.3346 40.8362C34.2775 40.6478 34.3267 40.4479 34.4674 40.2942C34.6082 40.1405 34.8246 40.0502 35.0543 40.05H42.2565Z" fill="#161616"/>
<circle cx="46.2324" cy="36.3386" r="2.33862" fill="#161616"/>
<circle cx="31.4815" cy="36.3386" r="2.33862" fill="#161616"/>
</svg>
