<svg width="28" height="28" viewBox="0 0 28 28" fill="none" xmlns="http://www.w3.org/2000/svg">
<path d="M27.7364 9.8C27.4999 7.32985 26.4939 4.99638 24.8604 3.129C22.9927 1.50194 20.6639 0.498627 18.1988 0.259C16.9787 0.0941724 15.7493 0.00766215 14.5182 0L13.4756 0C12.2467 0.00771182 11.0197 0.0942225 9.80189 0.259C7.33441 0.499365 5.00449 1.50806 3.14032 3.143C1.50985 5.00685 0.504098 7.33488 0.264373 9.8C0.0652852 11.1908 -0.0212977 12.5953 0.00546756 14C-0.0232206 15.4045 0.0610202 16.809 0.257376 18.2C0.497476 20.6692 1.503 23.0016 3.13333 24.871C5.00295 26.4994 7.3344 27.5028 9.80189 27.741C11.0197 27.9055 12.2467 27.992 13.4756 28H14.5112C15.7447 27.9926 16.9764 27.9061 18.1988 27.741C20.6688 27.5021 23.0013 26.4933 24.8674 24.857C26.4953 22.9922 27.4986 20.6643 27.7364 18.2C27.9354 16.8092 28.022 15.4047 27.9953 14C28.0216 12.5953 27.935 11.1908 27.7364 9.8Z" fill="#EEF0F2"/>
<path d="M27.7364 9.8C27.4999 7.32985 26.4939 4.99638 24.8604 3.129C22.9927 1.50194 20.6639 0.498626 18.1988 0.259C16.9787 0.0941724 15.7493 0.00766215 14.5182 0L13.4756 0C12.2467 0.00771182 11.0197 0.0942225 9.80189 0.259C7.33441 0.499365 5.00449 1.50806 3.14032 3.143C1.50985 5.00685 0.504098 7.33488 0.264373 9.8C0.0652852 11.1908 -0.0212977 12.5953 0.00546756 14C-0.0232206 15.4045 0.0610202 16.809 0.257376 18.2C0.497476 20.6692 1.503 23.0016 3.13333 24.871C5.00295 26.4994 7.3344 27.5028 9.80189 27.741C11.0197 27.9055 12.2467 27.992 13.4756 28H14.5112C15.7447 27.9926 16.9764 27.9061 18.1988 27.741C20.6688 27.502 23.0013 26.4933 24.8674 24.857C26.4953 22.9922 27.4986 20.6643 27.7364 18.2C27.9354 16.8092 28.022 15.4047 27.9953 14C28.0216 12.5953 27.935 11.1908 27.7364 9.8Z" fill="#E5E5E5"/>
<mask id="mask0_1697_11142" style="mask-type:alpha" maskUnits="userSpaceOnUse" x="0" y="0" width="28" height="28">
<path d="M27.7364 9.8C27.4999 7.32985 26.4939 4.99638 24.8604 3.129C22.9927 1.50194 20.6639 0.498626 18.1988 0.259C16.9787 0.0941724 15.7493 0.00766215 14.5182 0L13.4756 0C12.2467 0.00771182 11.0197 0.0942225 9.80189 0.259C7.33441 0.499365 5.00449 1.50806 3.14032 3.143C1.50985 5.00685 0.504098 7.33488 0.264373 9.8C0.0652852 11.1908 -0.0212977 12.5953 0.00546756 14C-0.0232206 15.4045 0.0610202 16.809 0.257376 18.2C0.497476 20.6692 1.503 23.0016 3.13333 24.871C5.00295 26.4994 7.3344 27.5028 9.80189 27.741C11.0197 27.9055 12.2467 27.992 13.4756 28H14.5112C15.7447 27.9926 16.9764 27.9061 18.1988 27.741C20.6688 27.502 23.0013 26.4933 24.8674 24.857C26.4953 22.9922 27.4986 20.6643 27.7364 18.2C27.9354 16.8092 28.022 15.4047 27.9953 14C28.0216 12.5953 27.935 11.1908 27.7364 9.8Z" fill="#EEF0F2"/>
</mask>
<g mask="url(#mask0_1697_11142)">
<path d="M-2.11602 18.8965C-2.20094 16.1821 0.617509 14.8752 2.48573 12.5532C4.39995 8.20109 8.68519 5.10182 13.7543 4.94323C19.0872 4.7765 23.7558 7.91329 25.7964 12.5059C27.6227 14.4186 29.5028 15.6459 29.5831 18.2087C29.6793 21.2843 26.5023 23.6809 24.5984 26.4613C24.2216 26.4731 23.8692 26.4081 23.5405 26.2805C21.3026 28.7215 18.1223 30.2946 14.5509 30.4064C10.7026 30.5268 7.20186 28.9251 4.78291 26.2996C4.52839 26.3942 4.25688 26.4499 3.96718 26.459C1.98116 23.9157 -2.02378 21.8417 -2.11602 18.8965Z" fill="#8781FF"/>
</g>
<path d="M15.0901 14.0166C15.1703 14.0166 15.2459 14.048 15.2952 14.1016C15.3445 14.1554 15.3621 14.226 15.342 14.292C15.1687 14.8622 14.5573 15.2842 13.8293 15.2842C13.1016 15.2841 12.491 14.8621 12.3176 14.292C12.2976 14.226 12.3142 14.1554 12.3635 14.1016C12.4128 14.0478 12.4892 14.0166 12.5696 14.0166H15.0901Z" fill="#161616"/>
<circle cx="16.4811" cy="12.717" r="0.818519" fill="#161616"/>
<circle cx="11.3185" cy="12.717" r="0.818519" fill="#161616"/>
</svg>
