<svg width="784" height="650" viewBox="0 0 784 650" fill="none" xmlns="http://www.w3.org/2000/svg">
<path opacity="0.5" d="M783.688 325C783.688 145.507 638.181 0 458.688 0C279.195 0 133.688 145.507 133.688 325V650H458.688C638.181 650 783.688 504.493 783.688 325Z" fill="#4DFFCD"/>
<path opacity="0.9" d="M650 325C650 145.507 504.493 0 325 0C145.507 0 0 145.507 0 325V650H325C504.493 650 650 504.493 650 325Z" fill="#4DFFCD"/>
<path d="M505.314 292.343H331.499L320.019 324.526H493.659L457.964 423.099L288.58 422.981L260.257 492.957H99.6534L128.022 422.872H127.974L208.675 199.372H538.98L505.314 292.343Z" fill="#141517"/>
</svg>
