<svg width="24" height="24" viewBox="0 0 24 24" fill="none" xmlns="http://www.w3.org/2000/svg">
<path d="M18.0331 11.8019C18.0641 15.1637 20.9678 16.2824 21 16.2967C20.9754 16.3756 20.536 17.8909 19.4702 19.4562C18.5488 20.8095 17.5925 22.1578 16.0861 22.1857C14.6059 22.2131 14.13 21.3037 12.4377 21.3037C10.7459 21.3037 10.2171 22.1578 8.81591 22.2131C7.36184 22.2684 6.25458 20.7497 5.32554 19.4014C3.42717 16.6434 1.97642 11.608 3.92441 8.20897C4.89213 6.521 6.62152 5.45211 8.49862 5.4247C9.92648 5.39733 11.2742 6.39002 12.1471 6.39002C13.0194 6.39002 14.6572 5.19622 16.3789 5.37155C17.0997 5.4017 19.1229 5.66413 20.4221 7.5751C20.3174 7.64031 18.0079 8.99135 18.0331 11.8019V11.8019ZM15.2512 3.54689C16.0232 2.60787 16.5427 1.30066 16.401 0C15.2883 0.0449414 13.9427 0.745134 13.1446 1.68364C12.4293 2.51473 11.8028 3.84495 11.9719 5.11986C13.2121 5.21629 14.4792 4.48651 15.2512 3.54689" fill="black"/>
</svg>
