<svg width="24" height="24" viewBox="0 0 24 24" fill="none" xmlns="http://www.w3.org/2000/svg">
<path d="M21.5999 12.2272C21.5999 11.5182 21.5363 10.8363 21.4181 10.1818H12V14.0545H17.3818C17.1454 15.3 16.4363 16.3545 15.3727 17.0636V19.5818H18.6181C20.509 17.8363 21.5999 15.2727 21.5999 12.2272Z" fill="#4285F4"/>
<path d="M12 21.9999C14.7 21.9999 16.9636 21.109 18.6181 19.5818L15.3727 17.0636C14.4818 17.6636 13.3454 18.0272 12 18.0272C9.39998 18.0272 7.19089 16.2727 6.39999 13.9091H3.07272V16.4909C4.71817 19.7545 8.09089 21.9999 12 21.9999Z" fill="#34A853"/>
<path d="M6.39999 13.9C6.19999 13.3 6.08181 12.6636 6.08181 12C6.08181 11.3363 6.19999 10.7 6.39999 10.1V7.51817H3.07272C2.39091 8.86362 2 10.3818 2 12C2 13.6181 2.39091 15.1363 3.07272 16.4818L5.66363 14.4636L6.39999 13.9Z" fill="#FBBC05"/>
<path d="M12 5.98181C13.4727 5.98181 14.7818 6.4909 15.8272 7.47271L18.6909 4.60908C16.9545 2.99091 14.7 2 12 2C8.09089 2 4.71817 4.24545 3.07272 7.51817L6.39999 10.1C7.19089 7.73635 9.39998 5.98181 12 5.98181Z" fill="#EA4335"/>
</svg>
