<svg width="24" height="24" viewBox="0 0 24 24" fill="none" xmlns="http://www.w3.org/2000/svg">
<path d="M11.997 2.5498C6.03514 2.5498 1.2002 6.10781 1.2002 10.4988C1.2002 13.325 3.20185 15.7941 6.20912 17.2072L5.19233 20.7474C5.1752 20.7989 5.17342 20.8538 5.1872 20.9062C5.20098 20.9586 5.22979 21.0065 5.27055 21.0449C5.29922 21.0721 5.33351 21.0937 5.37137 21.1083C5.40923 21.1228 5.44987 21.1301 5.49083 21.1297C5.55976 21.132 5.62745 21.112 5.68237 21.0731L10.0576 18.3198C10.7016 18.4061 11.3512 18.4503 12.0018 18.4522C17.9653 18.4522 22.8002 14.8942 22.8002 10.5047C22.8002 6.11524 17.9605 2.5498 11.997 2.5498Z" fill="#3B1E1D"/>
</svg>
